# xmcd
#
# Track frame offsets:
#  150
#  25194
#  46766
#  104838
#  121201
#  143755
#  164990
#  197628
#  244391
#
# Disc length: 3710 seconds
#
# Revision: 0
# Processed by: cddbd v1.5.2PL0 Copyright (c) Steve Scherf et al.
# Submitted via: Collectorz.com_Music_Collector 6.11
#
DISCID=820e7c09
DTITLE=Eric Clapton - Lille Zenith (2CDs) [CD2)
DYEAR=2006
DGENRE=Blues/Rock
TTITLE0=Milkcow Blues
TTITLE1=After Midnight
TTITLE2=Little Queen Of Spades
TTITLE3=Everybody Oughta Make A Change
TTITLE4=Motherless Children
TTITLE5=Wonderful Tonight
TTITLE6=Layla
TTITLE7=Cocaine
TTITLE8=Crossroads
EXTD=
EXTT0=
EXTT1=
EXTT2=
EXTT3=
EXTT4=
EXTT5=
EXTT6=
EXTT7=
EXTT8=
PLAYORDER=
